<?xml version="1.0" standalone="no"?><!DOCTYPE svg PUBLIC "-//W3C//DTD SVG 1.1//EN" "http://www.w3.org/Graphics/SVG/1.1/DTD/svg11.dtd"><svg t="1603254145603" class="icon" viewBox="0 0 1024 1024" version="1.1" xmlns="http://www.w3.org/2000/svg" p-id="4175" width="32" height="32" xmlns:xlink="http://www.w3.org/1999/xlink"><defs><style type="text/css"></style></defs><path d="M668.16 798.72h-312.32C216.064 798.72 102.4 685.056 102.4 545.28v-35.84C102.4 369.664 216.064 256 355.84 256H808.96c16.9984 0 30.72 13.7216 30.72 30.72s-13.7216 30.72-30.72 30.72H355.84C249.9584 317.44 163.84 403.5584 163.84 509.44v35.84C163.84 651.1616 249.9584 737.28 355.84 737.28h312.32C774.0416 737.28 860.16 651.1616 860.16 545.28V522.24c0-16.9984 13.7216-30.72 30.72-30.72s30.72 13.7216 30.72 30.72v23.04C921.6 685.056 807.936 798.72 668.16 798.72z" fill="#efb336" p-id="4176"></path><path d="M798.72 389.12V174.08l107.52 107.52z"  p-id="4177"></path></svg>