<?xml version="1.0" standalone="no"?><!DOCTYPE svg PUBLIC "-//W3C//DTD SVG 1.1//EN" "http://www.w3.org/Graphics/SVG/1.1/DTD/svg11.dtd"><svg t="1604567384547" class="icon" viewBox="0 0 1024 1024" version="1.1" xmlns="http://www.w3.org/2000/svg" p-id="2386" xmlns:xlink="http://www.w3.org/1999/xlink" width="32" height="32"><defs><style type="text/css"></style></defs><path d="M906.92 756c0 100.89-57.71 182.68-128.91 182.68-71.19 0-128.9-81.79-128.9-182.68s57.71-182.68 128.9-182.68S906.92 655.11 906.92 756zM320.21 813.48c0 47.38-48.41 85.79-108.12 85.79s-108.12-38.41-108.12-85.79c0-47.38 48.41-85.78 108.12-85.78s108.12 38.4 108.12 85.78z" fill="#FFE66F" p-id="2387"></path><path d="M912.06 850.79l-18.78 26.3-22.54 22.53-3.75-3.75c-30.05 22.53-67.62 37.57-108.93 37.57-101.43 0-187.82-86.41-187.82-191.59 0-41.32 11.27-78.88 33.81-112.69v-3.75l45.07-45.08 3.76 3.75c30.05-22.53 67.62-37.56 108.94-37.56 101.42 0 187.82 86.4 187.82 191.58-3.78 41.32-18.8 78.88-37.58 112.69zM634.09 738.1c0 71.37 56.34 127.72 123.96 127.72 22.53 0 45.07-7.52 63.86-18.79L652.86 670.49c-11.27 22.53-18.77 45.07-18.77 67.61z m123.96-127.71c-22.54 0-45.08 7.51-63.87 18.77l169.04 176.55c11.27-18.78 18.78-41.32 18.78-63.86 0-75.12-52.59-131.46-123.95-131.46z m63.86-300.52l-477.07 52.59v454.52c0 78.89-60.1 142.74-135.23 142.74-71.37 0-135.23-63.86-135.23-142.74 0-78.88 60.1-142.74 135.23-142.74 26.29 0 45.07 7.51 75.13 26.3V155.86c0-15.02 7.51-26.3 22.54-30.05h3.76l529.65-63.86h7.52c11.27 0 33.81 7.51 33.81 33.81v458.27c-18.78-11.26-37.56-22.53-60.1-30.05V309.87zM205.86 738.1c-41.32 0-71.38 37.56-71.38 78.88 0 45.08 33.81 78.89 71.38 78.89 41.32 0 71.37-37.57 71.37-78.89-0.01-41.32-30.05-78.88-71.37-78.88z m616.05-608.54l-477.07 56.35v116.45l480.82-52.59V129.56h-3.75z m0 0" fill="#5F55AC" p-id="2388"></path></svg>