<?xml version="1.0" standalone="no"?><!DOCTYPE svg PUBLIC "-//W3C//DTD SVG 1.1//EN" "http://www.w3.org/Graphics/SVG/1.1/DTD/svg11.dtd"><svg t="1603242772137" class="icon" viewBox="0 0 1024 1024" version="1.1" xmlns="http://www.w3.org/2000/svg" p-id="12225" width="32" height="32" xmlns:xlink="http://www.w3.org/1999/xlink"><defs><style type="text/css"></style></defs><path d="M512 512m-503.606557 0a503.606557 503.606557 0 1 0 1007.213114 0 503.606557 503.606557 0 1 0-1007.213114 0Z" fill="#282828" opacity=".601" p-id="12226"></path><path d="M512 1024C229.980328 1024 0 794.019672 0 512S229.980328 0 512 0 1024 229.980328 1024 512 794.019672 1024 512 1024z m0-1007.213115C238.37377 16.786885 16.786885 238.37377 16.786885 512S238.37377 1007.213115 512 1007.213115 1007.213115 785.62623 1007.213115 512 785.62623 16.786885 512 16.786885z" fill="#9B9B9B" opacity=".601" p-id="12227"></path><path d="M394.491803 327.344262c18.465574 0 33.57377 15.108197 33.573771 33.573771v302.163934c0 18.465574-15.108197 33.57377-33.573771 33.573771s-33.57377-15.108197-33.57377-33.573771v-302.163934c0-18.465574 15.108197-33.57377 33.57377-33.573771zM629.508197 327.344262c18.465574 0 33.57377 15.108197 33.57377 33.573771v302.163934c0 18.465574-15.108197 33.57377-33.57377 33.573771s-33.57377-15.108197-33.573771-33.573771v-302.163934c0-18.465574 15.108197-33.57377 33.573771-33.573771z" p-id="12228"></path></svg>