<?xml version="1.0" standalone="no"?><!DOCTYPE svg PUBLIC "-//W3C//DTD SVG 1.1//EN" "http://www.w3.org/Graphics/SVG/1.1/DTD/svg11.dtd"><svg t="1603594822110" class="icon" viewBox="0 0 1024 1024" version="1.1" xmlns="http://www.w3.org/2000/svg" p-id="3440" xmlns:xlink="http://www.w3.org/1999/xlink" width="32" height="32"><defs><style type="text/css"></style></defs><path d="M868.140138 812.137931a35.310345 35.310345 0 1 1 0 70.62069h-706.206897a35.310345 35.310345 0 1 1 0-70.62069h706.206897z m-353.103448-211.862069a35.310345 35.310345 0 1 1 0 70.62069h-353.103449a35.310345 35.310345 0 1 1 0-70.62069h353.103449z m0-229.517241a35.310345 35.310345 0 1 1 0 70.620689h-353.103449a35.310345 35.310345 0 1 1 0-70.620689h353.103449z m353.103448-229.517242a35.310345 35.310345 0 1 1 0 70.62069h-706.206897a35.310345 35.310345 0 1 1 0-70.62069h706.206897zM837.102345 456.73931L759.172414 378.827034l-77.929931 77.947587a35.310345 35.310345 0 1 1-49.946483-49.946483l99.87531-99.87531A35.239724 35.239724 0 0 1 759.172414 296.730483a35.239724 35.239724 0 0 1 28.018758 10.204689l99.875311 99.875311a35.310345 35.310345 0 1 1-49.946483 49.946483z" fill="#626164" p-id="3441"></path><path d="M723.862069 353.103448m35.310345 0l0 0q35.310345 0 35.310345 35.310345l0 317.793104q0 35.310345-35.310345 35.310344l0 0q-35.310345 0-35.310345-35.310344l0-317.793104q0-35.310345 35.310345-35.310345Z"  p-id="3442"></path></svg>