<?xml version="1.0" standalone="no"?><!DOCTYPE svg PUBLIC "-//W3C//DTD SVG 1.1//EN" "http://www.w3.org/Graphics/SVG/1.1/DTD/svg11.dtd"><svg t="1603261453851" class="icon" viewBox="0 0 1312 1024" version="1.1" xmlns="http://www.w3.org/2000/svg" p-id="9275" xmlns:xlink="http://www.w3.org/1999/xlink" width="41" height="32"><defs><style type="text/css"></style></defs><path d="M1057.49287922 833.35009766h-0.61798096c-7.95959473 0-189.91790771-1.31011963-329.55688476-189.54711914-12.23602295-16.43829346-35.42266846-22.19787598-51.88568115-10.01129151-16.4630127 12.21130372-19.89898682 36.95526123-7.6876831 53.41827393C823.67360432 897.42236328 1029.43654378 907.5078125 1056.00972493 907.5078125h2.57080078c20.39337158 0 36.4855957-17.45178223 36.04064942-37.84515381A37.10357666 37.10357666 0 0 0 1057.49287922 833.35009766zM201.78700764 316.05059815c1.73034668-0.17303467 171.99645997-23.08776856 310.54779053 150.11993407a37.00469971 37.00469971 0 0 0 52.1081543 5.78430176 37.07885742 37.07885742 0 0 0 5.78430175-52.10815429C405.37465412 213.71295166 199.66115315 241.39849854 190.95998128 242.68389893a37.07885742 37.07885742 0 0 0 10.82702636 73.36669922z" fill="#333333" p-id="9276"></path><path d="M898.15266927 311.84832763V413.12304687l259.47784423-158.35144043L898.15266927 116.4921875v110.84106445c-54.35760498 26.96868896-254.95422364 138.03222656-336.23107911 343.62213135-80.33752442 203.19213867-366.24023438 228.30688477-369.13238525 228.55407715a37.07885742 37.07885742 0 0 0 5.75958252 73.91052246c13.62030029-1.03820801 334.84680176-28.64959717 432.3147583-275.19927979C690.21443685 448.19964599 827.60396321 352.80810547 898.15266927 311.84832763z"  p-id="9277"></path></svg>