<?xml version="1.0" standalone="no"?><!DOCTYPE svg PUBLIC "-//W3C//DTD SVG 1.1//EN" "http://www.w3.org/Graphics/SVG/1.1/DTD/svg11.dtd"><svg t="1603264510484" class="icon" viewBox="0 0 1024 1024" version="1.1" xmlns="http://www.w3.org/2000/svg" p-id="14699" xmlns:xlink="http://www.w3.org/1999/xlink" width="32" height="32"><defs><style type="text/css"></style></defs><path d="M627.456 397.824H311.232a21.333333 21.333333 0 1 1 0-42.666667h316.224a21.333333 21.333333 0 1 1 0 42.666667M627.456 533.333333H311.232a21.333333 21.333333 0 1 1 0-42.666666h316.224a21.333333 21.333333 0 1 1 0 42.666666M627.456 668.842667H311.232a21.333333 21.333333 0 1 1 0-42.666667h316.224a21.333333 21.333333 0 1 1 0 42.666667" fill="#666666" p-id="14700"></path><path d="M110.4 670.08c-8.597333 0-16.682667-5.226667-19.946667-13.738667A404.138667 404.138667 0 0 1 64 512C64 288.490667 245.845333 106.666667 469.333333 106.666667a406.4 406.4 0 0 1 330.368 170.453333c6.826667 9.6 4.586667 22.890667-4.992 29.738667a21.354667 21.354667 0 0 1-29.76-5.013334A363.733333 363.733333 0 0 0 469.333333 149.333333C269.354667 149.333333 106.666667 312.021333 106.666667 512c0 44.522667 7.957333 87.978667 23.68 129.152a21.354667 21.354667 0 0 1-19.946667 28.928M469.333333 917.333333c-129.152 0-247.637333-59.434667-325.013333-163.093333a21.354667 21.354667 0 0 1 34.197333-25.536C247.765333 821.504 353.770667 874.666667 469.333333 874.666667c199.978667 0 362.666667-162.688 362.666667-362.666667 0-43.392-7.573333-85.866667-22.528-126.165333a21.290667 21.290667 0 0 1 12.565333-27.413334 21.290667 21.290667 0 0 1 27.434667 12.586667 404.096 404.096 0 0 1 25.173333 141.013333c0 223.466667-181.802667 405.333333-405.333333 405.333334" fill="#666666" p-id="14701"></path><path d="M786.24 308.16a22.058667 22.058667 0 0 1-22.058667-21.738667l-1.365333-90.325333a22.058667 22.058667 0 0 1 21.717333-22.4c12.138667 0.682667 22.229333 9.557333 22.4 21.76l1.386667 90.304a22.101333 22.101333 0 0 1-21.738667 22.4h-0.341333zM154.453333 858.816a22.058667 22.058667 0 0 1-22.08-21.76l-1.386666-90.325333a22.101333 22.101333 0 0 1 21.76-22.4h0.32c12.032 0 21.866667 9.642667 22.058666 21.738666l1.386667 90.346667a22.101333 22.101333 0 0 1-21.738667 22.4H154.453333z" p-id="14702"></path></svg>