<?xml version="1.0" standalone="no"?><!DOCTYPE svg PUBLIC "-//W3C//DTD SVG 1.1//EN" "http://www.w3.org/Graphics/SVG/1.1/DTD/svg11.dtd"><svg t="1604566392100" class="icon" viewBox="0 0 1024 1024" version="1.1" xmlns="http://www.w3.org/2000/svg" p-id="5024" xmlns:xlink="http://www.w3.org/1999/xlink" width="32" height="32"><defs><style type="text/css"></style></defs><path d="M512 512m-512 0a512 512 0 1 0 1024 0 512 512 0 1 0-1024 0Z" fill="#FFFFFF" p-id="5025"></path><path d="M587.715765 524.047059c37.857882-24.094118 61.952-67.132235 61.952-115.320471A138.089412 138.089412 0 0 0 512 271.058824a138.089412 138.089412 0 0 0-137.667765 137.667764c0 48.188235 24.094118 91.226353 61.952 115.320471C339.907765 555.038118 271.058824 646.234353 271.058824 752.941176h34.42447c0-113.573647 92.943059-206.516706 206.516706-206.516705 113.573647 0 206.516706 92.943059 206.516706 206.516705H752.941176c0-106.706824-68.848941-197.903059-165.225411-228.894117zM512 512a103.574588 103.574588 0 0 1-103.273412-103.273412A103.574588 103.574588 0 0 1 512 305.483294a103.574588 103.574588 0 0 1 103.273412 103.243294A103.574588 103.574588 0 0 1 512 512z"  p-id="5026"></path></svg>